#!OML:ASF H:\ManfredETheater\Project 1\Capture day 1\Session 1\subject.ASF
:FULLY-SPECIFIED
:DEGREES
77
root -8.65974 15.1772 -3.55756 -4.37408 17.931 -5.12592
lowerback 25.8644 -1.80727 4.18244
upperback 5.08175 -0.765543 3.56837
thorax -8.71843 -0.3908 1.80512
lowerneck -15.9233 10.3964 5.03689
upperneck 10.4789 15.576 -16.1155
head 7.59729 6.45302 -4.14666
rclavicle 3.3197e-014 -3.65764e-014
rhumerus -48.3792 -6.10327 -77.2633
rradius 86.1212
rwrist -9.92224
rhand -27.1188 8.48025
rfingers 7.12502
rthumb -0.534827 -21.4988
lclavicle 3.3197e-014 -3.65764e-014
lhumerus -31.7253 -1.71111 75.2404
lradius 97.3098
lwrist 9.57357
lhand -23.13 -9.31339
lfingers 7.12502
lthumb 3.31752 20.6405
rfemur -39.2125 -7.12109 6.87098
rtibia 82.9374
rfoot -9.02789 -7.41782
rtoes -39.1005
lfemur -46.3146 -1.18935 -31.8191
ltibia 74.9708
lfoot -15.3858 0.506201
ltoes 22.322
78
root -8.56703 15.1479 -3.11127 -4.66416 17.9749 -5.28352
lowerback 26.0001 -1.79067 4.46195
upperback 5.20357 -0.660241 3.59696
thorax -8.65297 -0.34498 1.64296
lowerneck -15.9222 10.4615 4.74967
upperneck 10.652 15.8053 -16.3437
head 7.68059 6.52297 -4.14046
rclavicle 3.97569e-016 -3.65764e-014
rhumerus -48.7083 -5.70262 -76.8886
rradius 84.5821
rwrist -10.1801
rhand -27.0432 8.19499
rfingers 7.12502
rthumb -0.461851 -21.7843
lclavicle 3.97569e-016 -3.65764e-014
lhumerus -29.9837 -0.81224 76.393
lradius 98.9089
lwrist 10.3961
lhand -23.3264 -9.07192
lfingers 7.12502
lthumb 3.12794 20.8849
rfemur -40.187 -5.68965 6.43593
rtibia 79.3105
rfoot -9.05821 -7.4246
rtoes -39.3103
lfemur -45.3625 -0.236986 -31.6804
ltibia 77.1686
lfoot -16.7973 0.00810803
ltoes 21.3828
79
root -8.47132 15.1319 -2.66697 -4.90391 18.0952 -5.40601
lowerback 26.0993 -1.78758 4.67934
upperback 5.28816 -0.587906 3.64146
thorax -8.60928 -0.313286 1.54488
lowerneck -15.9429 10.4868 4.45745
upperneck 10.9241 15.9872 -16.5109
head 7.78842 6.56707 -4.11999
rclavicle -1.64991e-014 -7.95139e-015
rhumerus -48.9257 -5.09835 -76.6795
rradius 83.2213
rwrist -10.7474
rhand -26.926 7.92808
rfingers 7.12502
rthumb -0.348601 -22.0514
lclavicle -1.64991e-014 -7.95139e-015
lhumerus -28.5694 -0.45779 77.8652
lradius 100.598
lwrist 11.5112
lhand -23.41 -8.9724
lfingers 7.12502
lthumb 3.04716 20.9856
rfemur -40.7244 -4.24017 5.75812
rtibia 75.299
rfoot -8.82742 -7.05677
rtoes -39.6806
lfemur -44.3951 0.78365 -31.5108
ltibia 79.2159
lfoot -17.7223 -0.752841
ltoes 20.12
80
root -8.37536 15.1259 -2.22309 -5.0826 18.3608 -5.53711
lowerback 26.126 -1.81615 4.87058
upperback 5.32856 -0.564408 3.70462
thorax -8.57793 -0.304187 1.49785
lowerneck -15.9815 10.4726 4.17695
upperneck 11.2698 16.1123 -16.6065
head 7.91097 6.58388 -4.08615
rclavicle -2.60408e-014 2.3059e-014
rhumerus -49.0575 -4.34839 -76.6455
rradius 82.0938
rwrist -11.5496
rhand -26.7946 7.72086
rfingers 7.12502
rthumb -0.221734 -22.2588
lclavicle -2.60408e-014 2.3059e-014
lhumerus -27.4994 -0.748368 79.5697
lradius 102.33
lwrist 12.736
lhand -23.3521 -9.01505
lfingers 7.12502
lthumb 3.10308 20.9421
rfemur -40.8553 -2.83068 4.89457
rtibia 71.0569
rfoot -8.32969 -6.45746
rtoes -40.1856
lfemur -43.5234 1.77116 -31.2318
ltibia 81.1877
lfoot -18.0458 -1.84544
ltoes 18.4995
81
root -8.28268 15.1247 -1.77745 -5.22732 18.8158 -5.73129
lowerback 26.0777 -1.88704 5.06692
upperback 5.33175 -0.59458 3.79695
thorax -8.55057 -0.320417 1.4971
lowerneck -16.0452 10.4211 3.91566
upperneck 11.6639 16.1758 -16.6241
head 8.04082 6.57324 -4.03867
rclavicle 6.81831e-014 -3.10104e-014
rhumerus -49.1308 -3.51966 -76.7814
rradius 81.242
rwrist -12.4056
rhand -26.6492 7.59255
rfingers 7.12502
rthumb -0.081288 -22.3872
lclavicle 6.81831e-014 -3.10104e-014
lhumerus -26.7931 -1.73316 81.4413
lradius 104.054
lwrist 13.8535
lhand -23.1921 -9.179
lfingers 7.12502
lthumb 3.25757 20.7759
rfemur -40.6003 -1.47055 3.9226
rtibia 66.7534
rfoot -7.64343 -5.82294
rtoes -40.8753
lfemur -42.8216 2.66486 -30.762
ltibia 83.1611
lfoot -17.7002 -3.29034
ltoes 16.521
82
root -8.19548 15.1239 -1.32889 -5.36247 19.4876 -6.02614
lowerback 25.9474 -2.00837 5.2943
upperback 5.30899 -0.683138 3.92123
thorax -8.51126 -0.364456 1.53176
lowerneck -16.1345 10.3346 3.68038
upperneck 12.0757 16.1723 -16.5598
head 8.16759 6.53556 -3.97815
rclavicle -4.4329e-014 -2.62396e-014
rhumerus -49.1591 -2.68162 -77.0855
rradius 80.6786
rwrist -13.1155
rhand -26.4902 7.55197
rfingers 7.12502
rthumb 0.0722884 -22.4278
lclavicle -4.4329e-014 -2.62396e-014
lhumerus -26.4661 -3.39691 83.4367
lradius 105.708
lwrist 14.6467
lhand -22.9262 -9.45253
lfingers 7.12502
lthumb 3.51433 20.4982
rfemur -39.9905 -0.164667 2.91029
rtibia 62.5543
rfoot -6.80115 -5.31501
rtoes -41.6302
lfemur -42.3434 3.41568 -30.0533
ltibia 85.1801
lfoot -16.6629 -5.03886
ltoes 14.3454
